<svg xmlns="http://www.w3.org/2000/svg" viewBox="0 0 1200 400"><defs><linearGradient id="bg" x1="0" y1="0" x2="1" y2="1"><stop stop-color="#102a43"/><stop offset="1" stop-color="#071b2d"/></linearGradient></defs><rect width="1200" height="400" rx="34" fill="url(#bg)"/><path d="M0 125C155 60 270 170 420 110s280 48 420 0 250 14 360-45v335H0z" fill="#0b2237"/><path d="M0 220c170-70 295 40 450-25s270 55 430 5 215 20 320-20v220H0z" fill="#0a1e31"/><path d="M0 320c170-55 300 15 450-30s285 30 430 2 220 15 320-10v118H0z" fill="#081827"/><circle cx="74" cy="72" r="7" fill="#3bd3df"/><text x="72" y="166" fill="#edf4f5" font-family="Inter,Segoe UI,Arial,sans-serif" font-size="62" font-weight="700">VantOPS Chile</text><text x="74" y="214" fill="#9fb3c2" font-family="Inter,Segoe UI,Arial,sans-serif" font-size="25" letter-spacing="2">RPAS · planificación · bitácora</text><rect x="74" y="246" width="150" height="5" rx="3" fill="#3bd3df"/><rect x="244" y="246" width="64" height="5" rx="3" fill="#436579"/><g transform="translate(860 120)" fill="none" stroke="#dfeff3" stroke-width="12" stroke-linecap="round" stroke-linejoin="round"><path d="M70 75h170l-38 32H108z" fill="#e9f2f3" stroke="none"/><path d="M112 72L52 42M198 72l60-30M92 40H28M218 40h64"/><circle cx="155" cy="108" r="18" stroke="#3bd3df"/><path d="M38 170c52-40 105-18 142 8 35 25 79 30 118-4" stroke="#3bd3df" stroke-dasharray="10 12"/><circle cx="38" cy="170" r="9" fill="#3bd3df" stroke="none"/><circle cx="180" cy="178" r="9" fill="#3bd3df" stroke="none"/><path d="M298 174l18-28 18 28-18 24z" fill="#3bd3df" stroke="none"/></g></svg>